# xmcd
#
# Track frame offsets:
#	150
#	20987
#	32816
#	48411
#	63138
#	75180
#	90244
#	103513
#	116495
#	128732
#	143014
#	154353
#	170308
#	183472
#	203612
#	218041
#	232211
#	246888
#	260842
#	273729
#	295779
#	311221
#
# Disc length: 4342 seconds
#
# Revision: 0
# Processed by: cddbd v1.4PL0 Copyright (c) Steve Scherf et al.
# Submitted via: EasyCDDAExtractor 4.6.9.1
#
DISCID=3c10f416
DTITLE=Frank Sinatra - Frank Sinatra - My Way - The Best Of CD 2
DYEAR=1997
DGENRE=Blues
TTITLE0=My Way
TTITLE1=Strangers In The Night
TTITLE2=Theme From New York New York
TTITLE3=I Get A Kick Out Of You
TTITLE4=Somethin' Stupid
TTITLE5=Moon River
TTITLE6=Summer Wind
TTITLE7=For Once In My Life
TTITLE8=They Can't Take That Away From Me
TTITLE9=My Kind Of Town
TTITLE10=Fly Me To The Moon
TTITLE11=I've Got You Under My Skin
TTITLE12=The Best Is Yet To Come
TTITLE13=It Was A Very Good Year
TTITLE14=Come Fly With Me
TTITLE15=That's Life
TTITLE16=The Girl From Ipanea
TTITLE17=The Lady Is A Tramp
TTITLE18=Bad,Bad Leroy Brown
TTITLE19=Mack The Knife
TTITLE20=Love's Been Good To Me
TTITLE21=L.A. Is My Lady
EXTD=
EXTT0=
EXTT1=
EXTT2=
EXTT3=
EXTT4=
EXTT5=
EXTT6=
EXTT7=
EXTT8=
EXTT9=
EXTT10=
EXTT11=
EXTT12=
EXTT13=
EXTT14=
EXTT15=
EXTT16=
EXTT17=
EXTT18=
EXTT19=
EXTT20=
EXTT21=
PLAYORDER=
